<?xml version="1.0" standalone="no"?>
<!DOCTYPE svg PUBLIC "-//W3C//DTD SVG 20010904//EN"
 "http://www.w3.org/TR/2001/REC-SVG-20010904/DTD/svg10.dtd">
<svg version="1.0" xmlns="http://www.w3.org/2000/svg"
 width="256.000000pt" height="256.000000pt" viewBox="0 0 256.000000 256.000000"
 preserveAspectRatio="xMidYMid meet">

<g transform="translate(0.000000,256.000000) scale(0.100000,-0.100000)"
fill="#000000" stroke="none">
<path d="M1195 2470 c-167 -26 -308 -94 -415 -200 -111 -110 -170 -259 -170
-424 0 -73 15 -205 25 -214 2 -2 29 2 61 8 32 7 108 18 168 24 82 9 110 16
108 25 -26 119 -18 226 22 295 56 96 196 154 345 143 136 -9 245 -69 294 -161
33 -61 30 -218 -7 -339 -31 -104 -116 -301 -194 -448 l-56 -107 76 -113 c81
-121 133 -187 141 -179 22 24 164 275 223 396 124 254 186 468 187 654 1 123
-12 187 -61 290 -70 150 -242 283 -426 330 -90 23 -240 32 -321 20z"/>
</g>
</svg>
